# AST/ASF file generated using VICON BodyLanguage
# -----------------------------------------------
:version 1.10
:name VICON
:units
  mass 1.0
  length 0.45
  angle deg
:documentation
   .ast/.asf automatically generated from VICON data using
   VICON BodyBuilder and BodyLanguage model FoxedUp or BRILLIANT.MOD
:root
   order TX TY TZ RX RY RZ
   axis XYZ
   position 0 0 0  
   orientation 0 0 0 
:bonedata
  begin
     id 1 
     name lhipjoint
     direction 0.682418 -0.694059 0.22932 
     length 2.25561 
     axis 0 0 0  XYZ
  end
  begin
     id 2 
     name lfemur
     direction 0.34202 -0.939693 0  
     length 6.96448  
     axis 0 0 20  XYZ
    dof rx ry rz
    limits (-160.0 20.0)
           (-70.0 70.0)
           (-60.0 70.0)
  end
  begin
     id 3 
     name ltibia
     direction 0.34202 -0.939693 0   
     length 6.88553   
     axis 0 0 20   XYZ
    dof rx
    limits (-10.0 170.0)
  end
  begin
     id 4 
     name lfoot
     direction 0.0723587 -0.198804 0.977364   
     length 1.88518   
     axis -90 7.62852e-016 20   XYZ
    dof rx rz
    limits (-45.0 90.0)
           (-70.0 20.0)
  end
  begin
     id 5 
     name ltoes
     direction 1.53558e-011 -4.21962e-011 1   
     length 0.952124   
     axis -90 7.62852e-016 20   XYZ
    dof rx
    limits (-90.0 20.0)
  end
  begin
     id 6 
     name rhipjoint
     direction -0.657603 -0.71533 0.236348   
     length 2.18854  
     axis 0 0 0  XYZ 
  end
  begin
     id 7 
     name rfemur
     direction -0.34202 -0.939693 0   
     length 6.86686   
     axis 0 0 -20   XYZ
    dof rx ry rz
    limits (-160.0 20.0)
           (-70.0 70.0)
           (-70.0 60.0)
  end
  begin
     id 8 
     name rtibia
     direction -0.34202 -0.939693 0   
     length 6.59503   
     axis 0 0 -20   XYZ
    dof rx
    limits (-10.0 170.0)
 end
 begin
     id 9 
     name rfoot
     direction -0.101977 -0.280179 0.954516   
     length 1.93723  
     axis -90 -7.62852e-016 -20   XYZ
    dof rx rz
    limits (-45.0 90.0)
           (-20.0 70.0)
  end
  begin
     id 10 
     name rtoes
     direction -1.53564e-011 -4.21897e-011 1   
     length 0.970315   
     axis -90 -7.62852e-016 -20   XYZ
    dof rx
    limits (-90.0 20.0)
  end
  begin
     id 11 
     name lowerback
     direction -0.0339559 0.999421 -0.00235966   
     length 1.88543   
     axis 0 0 0   XYZ
    dof rx ry rz
    limits (-20.0 45.0)
           (-30.0 30.0)
           (-30.0 30.0)
  end
  begin
     id 12 
     name upperback
     direction 0.00401003 0.999739 0.0224689   
     length 1.8856   
     axis 0 0 0   XYZ
    dof rx ry rz
    limits (-20.0 45.0)
           (-30.0 30.0)
           (-30.0 30.0)
  end
  begin
     id 13 
     name thorax
     direction 0.0198619 0.999546 0.0226536   
     length 1.88352   
     axis 0 0 0   XYZ
    dof rx ry rz
    limits (-20.0 45.0)
           (-30.0 30.0)
           (-30.0 30.0)
  end
  begin
     id 14 
     name lowerneck
     direction -0.0461848 0.998632 0.0245198   
     length 1.34895   
     axis 0 0 0   XYZ
    dof rx ry rz
    limits (-20.0 45.0)
           (-30.0 30.0)
           (-30.0 30.0)
  end
  begin
     id 15 
     name upperneck
     direction -0.0180627 0.994724 -0.100984   
     length 1.35214   
     axis 0 0 0   XYZ
    dof rx ry rz
    limits (-20.0 45.0)
           (-30.0 30.0)
           (-30.0 30.0)
  end
  begin
     id 16
     name head
     direction -0.00374772 0.999293 -0.037403  
     length 1.3568  
     axis 0 0 0   XYZ
    dof rx ry rz
    limits (-20.0 45.0)
           (-30.0 30.0)
           (-30.0 30.0)
  end
  begin
     id 17 
     name lclavicle
     direction 0.971773 0.191119 0.138311  
     length 2.84954  
     axis 0 0 0   XYZ
    dof ry rz
    limits (-20.0 10.0)
           (0.0 20.0)
  end
  begin
     id 18 
     name lhumerus
     direction 1 -4.4897e-011 -2.43761e-027   
     length 4.40919   
     axis 180 -30 -90   XYZ
    dof rx ry rz
    limits (-60.0 90.0)
           (-90.0 90.0)
           (-90.0 90.0)
  end
  begin
     id 19
     name lradius
     direction 1 -4.4896e-011 -9.1621e-027   
     length 3.03857   
     axis 180 -30 -90   XYZ
    dof rx
    limits (-10.0 170.0)
  end
  begin
     id 20
     name lwrist
     direction 1 -4.4896e-011 -1.41363e-026   
     length 1.51928   
     axis 1.07133e-014 90 90   XYZ
    dof ry
    limits (-180.0 0.0)
 end
  begin
     id 21 
     name lhand
     direction 1 -4.48978e-011 -2.82725e-026   
     length 0.523208   
     axis 1.80403e-014 90 90   XYZ
    dof rx rz
    limits (-90.0 90.0)
           (-45.0 45.0)
  end
  begin
     id 22 
     name lfingers
     direction 1 -4.48977e-011 -5.6545e-026   
     length 0.421824   
     axis 3.60806e-014 90 90   XYZ
    dof rx
    limits (0.0 90.0)
  end
  begin
     id 23
     name lthumb
     direction 0.707107 -6.34962e-011 0.707107   
     length 0.605657   
     axis -90 45 2.85299e-015   XYZ
    dof rx rz
    limits (-45.0 45.0)
           (-45.0 45.0)
  end
  begin
     id 24 
     name rclavicle
     direction -0.957247 0.24311 0.156766   
     length 3.12406  
     axis 0 0 0   XYZ 
    dof ry rz
    limits (-10.0 20.0)
           (-20.0 0.0)
  end
  begin
     id 25 
     name rhumerus
     direction -1 -4.48964e-011 -1.70632e-027  
     length 4.61969   
     axis 180 30 90   XYZ
    dof rx ry rz
    limits (-90.0 60.0)
           (-90.0 90.0)
           (-90.0 90.0)
  end
  begin
     id 26 
     name rradius
     direction -1 -4.48966e-011 -6.60395e-027   
     length 3.09382   
     axis 180 30 90   XYZ
    dof rx
    limits (-10.0 170.0)
  end
  begin
     id 27 
     name rwrist
     direction -1 -4.48963e-011 -1.41363e-026   
     length 1.54691   
     axis 1.07133e-014 -90 -90   XYZ
    dof ry
    limits (-180.0 0.0)
  end
  begin
     id 28
     name rhand
     direction -1 -4.49013e-011 -2.82725e-026   
     length 0.500896   
     axis 1.80403e-014 -90 -90   XYZ
    dof rx rz
    limits (-90.0 90.0)
           (-45.0 45.0)
  end
  begin
     id 29
     name rfingers
     direction -1 -4.48902e-011 -5.6545e-026   
     length 0.403835   
     axis 3.60806e-014 -90 -90   XYZ
    dof rx
    limits (0.0 90.0)
  end
  begin
     id 30
     name rthumb
     direction -0.707107 -6.34953e-011 0.707107   
     length 0.579829   
     axis -90 -45 -2.85299e-015   XYZ
    dof rx rz
    limits (-45.0 45.0)
           (-45.0 45.0)
  end
:hierarchy
  begin
    root lhipjoint rhipjoint lowerback
    lhipjoint lfemur
    lfemur ltibia
    ltibia lfoot
    lfoot ltoes
    rhipjoint rfemur
    rfemur rtibia
    rtibia rfoot
    rfoot rtoes
    lowerback upperback
    upperback thorax
    thorax lowerneck lclavicle rclavicle
    lowerneck upperneck
    upperneck head
    lclavicle lhumerus
    lhumerus lradius
    lradius lwrist
    lwrist lhand lthumb
    lhand lfingers
    rclavicle rhumerus
    rhumerus rradius
    rradius rwrist
    rwrist rhand rthumb
    rhand rfingers
  end

#!OML:ASF E:\madness\Project 1\Capture day 1\Session 1\Female1.ASF
:FULLY-SPECIFIED
:DEGREES
1
root 5.15477 16.2351 -0.380901 -72.8529 -88.3717 83.4977
lowerback -2.22363 -1.30057 -4.45138
upperback -3.5809 -1.75668 0.829255
thorax -2.2855 -0.78396 3.34475
lowerneck -0.812652 -5.69104 -4.43292
upperneck 19.2109 -7.60769 -2.84163
head 6.02204 -4.41468 -0.60221
rclavicle 5.85794e-015 -9.93923e-017
rhumerus -48.176 0.249791 -88.086
rradius 39.0728
rwrist 0.841862
rhand -11.4894 -47.0762
rfingers 7.12502
rthumb 14.549 -76.546
lclavicle 5.85794e-015 -9.93923e-017
lhumerus -47.3107 14.588 80.7475
lradius 40.0427
lwrist -11.5333
lhand -23.8831 -11.4439
lfingers 7.12502
lthumb 2.59027 18.5201
rfemur -16.2964 18.472 12.6568
rtibia 21.3355
rfoot -17.6475 -20.5673
rtoes 6.29341
lfemur -14.3899 -26.3604 -13.8619
ltibia 19.7485
lfoot -7.93108 27.7216
ltoes 2.01213
2
root 5.15923 16.2365 -0.389018 -69.1754 -88.4471 79.8894
lowerback -2.25766 -1.31403 -4.35894
upperback -3.52729 -1.77009 0.885776
thorax -2.21007 -0.794344 3.34926
lowerneck -0.826765 -5.61104 -4.45047
upperneck 19.2638 -7.49016 -2.88843
head 6.03913 -4.36404 -0.609174
rclavicle 2.59041e-015 1.25234e-014
rhumerus -48.1229 0.550749 -88.136
rradius 39.0941
rwrist 0.812497
rhand -11.4746 -47.165
rfingers 7.12502
rthumb 14.5632 -76.6337
lclavicle 2.59041e-015 1.25234e-014
lhumerus -47.4434 14.7277 80.6468
lradius 40.4215
lwrist -11.5314
lhand -23.6391 -10.8751
lfingers 7.12502
lthumb 2.8259 19.0859
rfemur -16.3847 18.4247 12.7795
rtibia 21.3394
rfoot -17.617 -20.6408
rtoes 6.19582
lfemur -14.5715 -26.4453 -13.6418
ltibia 19.8038
lfoot -8.06399 27.7379
ltoes 2.27078
3
root 5.16143 16.2382 -0.397507 -67.8642 -88.4026 78.6326
lowerback -2.24686 -1.21143 -4.29628
upperback -3.45569 -1.63124 0.841008
thorax -2.15691 -0.728492 3.26803
lowerneck -0.94628 -5.69467 -4.53573
upperneck 19.3419 -7.59232 -2.86585
head 6.09026 -4.41755 -0.600814
rclavicle 1.26353e-014 -2.78299e-015
rhumerus -48.0848 0.186037 -87.8461
rradius 39.1511
rwrist 1.38874
rhand -10.7195 -46.4985
rfingers 7.12502
rthumb 15.2907 -75.9133
lclavicle 1.26353e-014 -2.78299e-015
lhumerus -47.3142 14.4644 80.7339
lradius 40.5885
lwrist -11.211
lhand -23.4167 -10.8526
lfingers 7.12502
lthumb 3.04073 19.1055
rfemur -16.4679 18.3779 12.7607
rtibia 21.3923
rfoot -17.6427 -20.6937
rtoes 5.84188
lfemur -14.6986 -26.5769 -13.5774
ltibia 19.7747
lfoot -8.28053 27.7906
ltoes 2.87864
4
root 5.16614 16.2384 -0.40761 -66.5915 -88.3108 77.3917
lowerback -2.09046 -1.12707 -4.31099
upperback -3.43878 -1.52451 0.809211
thorax -2.23706 -0.672855 3.24763
lowerneck -1.02265 -5.76286 -4.70432
upperneck 19.4316 -7.69203 -2.72494
head 6.14636 -4.46813 -0.5412
rclavicle 3.29858e-015 2.32578e-014
rhumerus -48.1468 -0.158794 -87.539
rradius 39.1937
rwrist 1.96448
rhand -9.6103 -46.565
rfingers 7.12502
rthumb 16.3589 -75.8951
lclavicle 3.29858e-015 2.32578e-014
lhumerus -47.1553 14.2258 80.8228
lradius 40.5562
lwrist -10.8763
lhand -23.4237 -11.2001
lfingers 7.12502
lthumb 3.03394 18.758
rfemur -16.5415 18.3386 12.6955
rtibia 21.4461
rfoot -17.6519 -20.7108
rtoes 5.49122
lfemur -14.7818 -26.6159 -13.5768
ltibia 19.7524
lfoot -8.24792 27.7285
ltoes 2.71356
5
root 5.17383 16.2368 -0.415263 -63.6448 -88.2413 74.4802
lowerback -1.9528 -1.10113 -4.29111
upperback -3.34793 -1.49155 0.793064
thorax -2.22386 -0.657481 3.22165
lowerneck -1.31174 -5.77302 -4.72523
upperneck 19.5465 -7.69658 -2.62909
head 6.23734 -4.46424 -0.52164
rclavicle -4.95098e-015 -2.5842e-015
rhumerus -48.0465 -0.139894 -87.473
rradius 39.3078
rwrist 2.02015
rhand -9.34745 -46.9072
rfingers 7.12502
rthumb 16.612 -76.2162
lclavicle -4.95098e-015 -2.5842e-015
lhumerus -46.8675 14.1493 80.8784
lradius 40.5287
lwrist -10.6877
lhand -23.6865 -11.5737
lfingers 7.12502
lthumb 2.78012 18.3879
rfemur -16.6261 18.2041 12.68
rtibia 21.5103
rfoot -17.6186 -20.7087
rtoes 5.13496
lfemur -14.8487 -26.4808 -13.5635
ltibia 19.7187
lfoot -8.04866 27.5336
ltoes 2.11512
6
root 5.18154 16.2362 -0.421156 -60.5206 -88.1638 71.4143
lowerback -1.94617 -1.17133 -4.33849
upperback -3.2298 -1.57934 0.829477
thorax -2.09563 -0.703641 3.28375
lowerneck -1.60708 -5.70422 -4.69235
upperneck 19.7426 -7.57617 -2.69039
head 6.34546 -4.4118 -0.55443
rclavicle -1.37907e-015 -1.8487e-014
rhumerus -47.8482 0.226246 -87.559
rradius 39.3649
rwrist 1.83252
rhand -9.9698 -46.63
rfingers 7.12502
rthumb 16.0127 -75.9882
lclavicle -1.37907e-015 -1.8487e-014
lhumerus -46.7273 14.4256 80.8084
lradius 40.6819
lwrist -10.7065
lhand -23.9166 -11.8319
lfingers 7.12502
lthumb 2.55792 18.1325
rfemur -16.7294 18.0954 12.6529
rtibia 21.56
rfoot -17.6453 -20.7309
rtoes 5.37167
lfemur -14.987 -26.4235 -13.5253
ltibia 19.7085
lfoot -7.99927 27.4121
ltoes 2.1203
7
root 5.19037 16.2363 -0.429242 -58.1276 -88.1212 69.0836
lowerback -1.86881 -1.30633 -4.47776
upperback -3.26352 -1.76153 0.962464
thorax -2.1507 -0.788292 3.50097
lowerneck -1.37903 -5.51235 -4.8051
upperneck 19.7777 -7.31989 -2.75665
head 6.31702 -4.30679 -0.534429
rclavicle 7.21837e-015 -6.95746e-015
rhumerus -47.8646 0.830289 -87.6357
rradius 39.2206
rwrist 1.85012
rhand -10.2511 -46.464
rfingers 7.12502
rthumb 15.7418 -75.8438
lclavicle 7.21837e-015 -6.95746e-015
lhumerus -47.156 15.0856 80.5443
lradius 41.0977
lwrist -10.9645
lhand -24.2066 -11.931
lfingers 7.12502
lthumb 2.27781 18.0366
rfemur -16.8331 18.0218 12.6533
rtibia 21.5856
rfoot -17.7412 -20.6621
rtoes 6.10662
lfemur -15.1673 -26.4614 -13.4182
ltibia 19.7276
lfoot -8.09719 27.3396
ltoes 2.38944
8
root 5.19784 16.2359 -0.437954 -55.8896 -88.1577 66.8905
lowerback -1.82236 -1.31904 -4.46271
upperback -3.1873 -1.77593 1.03189
thorax -2.09479 -0.796838 3.5641
lowerneck -1.48973 -5.39503 -4.90481
upperneck 19.9429 -7.15943 -2.68956
head 6.3939 -4.23623 -0.495585
rclavicle -1.69837e-014 -3.97569e-015
rhumerus -47.7839 1.09316 -87.6223
rradius 39.2005
rwrist 1.96026
rhand -10.2235 -46.6782
rfingers 7.12502
rthumb 15.7684 -76.0559
lclavicle -1.69837e-014 -3.97569e-015
lhumerus -47.2894 15.4342 80.402
lradius 41.4629
lwrist -11.1345
lhand -24.3781 -11.8918
lfingers 7.12502
lthumb 2.11222 18.0775
rfemur -16.9017 17.9346 12.7448
rtibia 21.5955
rfoot -17.7421 -20.6137
rtoes 6.18888
lfemur -15.2991 -26.4468 -13.2571
ltibia 19.7618
lfoot -8.16888 27.2566
ltoes 2.18604
9
root 5.2007 16.2358 -0.447745 -54.156 -88.1873 65.1893
lowerback -1.89284 -1.1779 -4.29538
upperback -2.96368 -1.57712 0.940253
thorax -1.84838 -0.709753 3.37102
lowerneck -2.02317 -5.60833 -4.78748
upperneck 20.1898 -7.41344 -2.70986
head 6.56273 -4.35141 -0.561726
rclavicle 9.06955e-015 1.59028e-015
rhumerus -47.5912 0.766568 -87.5319
rradius 39.4432
rwrist 1.87298
rhand -10.3374 -46.6749
rfingers 7.12502
rthumb 15.6587 -76.0613
lclavicle 9.06955e-015 1.59028e-015
lhumerus -46.8893 15.3224 80.3498
lradius 41.5218
lwrist -11.2281
lhand -24.1498 -12.0923
lfingers 7.12502
lthumb 2.33267 17.8747
rfemur -16.9591 17.8686 12.8316
rtibia 21.6106
rfoot -17.6261 -20.6552
rtoes 5.91548
lfemur -15.3627 -26.4261 -13.1425
ltibia 19.7897
lfoot -8.18415 27.2265
ltoes 2.03942
10
root 5.20008 16.2355 -0.457811 -54.0197 -88.1438 65.0217
lowerback -1.82829 -1.09134 -4.24321
upperback -2.92857 -1.46452 0.832117
thorax -1.86202 -0.655404 3.23171
lowerneck -2.18789 -5.68062 -4.48101
upperneck 20.5571 -7.51334 -2.85117
head 6.69134 -4.39826 -0.677368
rclavicle -6.70898e-016 -1.19271e-015
rhumerus -47.7941 0.630496 -87.5603
rradius 39.7398
rwrist 1.63173
rhand -10.1747 -46.648
rfingers 7.12502
rthumb 15.8154 -76.022
lclavicle -6.70898e-016 -1.19271e-015
lhumerus -47.0297 15.3659 80.0267
lradius 41.6325
lwrist -11.4312
lhand -24.0679 -12.5832
lfingers 7.12502
lthumb 2.41175 17.3829
rfemur -16.9385 17.7675 12.8505
rtibia 21.6455
rfoot -17.5684 -20.6353
rtoes 5.74252
lfemur -15.3071 -26.4367 -13.1792
ltibia 19.7927
lfoot -8.21169 27.226
ltoes 2.17109
11
root 5.20141 16.2347 -0.465228 -53.0928 -88.0434 64.1029
lowerback -1.61821 -1.15814 -4.31196
upperback -3.1071 -1.56982 0.823014
thorax -2.15429 -0.69812 3.26797
lowerneck -1.43386 -5.42635 -4.42283
upperneck 20.3208 -7.25101 -2.71634
head 6.48397 -4.25969 -0.594022
rclavicle 9.10682e-015 -7.15625e-015
rhumerus -48.2817 1.07373 -87.7385
rradius 39.965
rwrist 1.45876
rhand -9.87887 -46.8108
rfingers 7.12502
rthumb 16.1003 -76.162
lclavicle 9.10682e-015 -7.15625e-015
lhumerus -47.8356 15.6615 79.5489
lradius 42.1552
lwrist -11.4026
lhand -24.2792 -12.9026
lfingers 7.12502
lthumb 2.20775 17.0657
rfemur -16.9552 17.6362 12.8101
rtibia 21.697
rfoot -17.6079 -20.625
rtoes 5.59726
lfemur -15.302 -26.4246 -13.2415
ltibia 19.7711
lfoot -8.05793 27.1892
ltoes 1.76847
12
root 5.21213 16.2351 -0.472108 -49.043 -87.917 60.1989
lowerback -1.46046 -1.23152 -4.30974
upperback -3.20428 -1.67836 0.829981
thorax -2.33388 -0.747039 3.27928
lowerneck -1.49316 -5.25044 -4.32439
upperneck 20.4798 -7.01011 -2.76878
head 6.53663 -4.14625 -0.617304
rclavicle 1.74185e-014 -5.1684e-015
rhumerus -48.4959 1.3225 -87.7939
rradius 40.2
rwrist 1.41368
rhand -9.89959 -46.5537
rfingers 7.12502
rthumb 16.0803 -75.9065
lclavicle 1.74185e-014 -5.1684e-015
lhumerus -48.3923 15.9846 79.1478
lradius 42.9132
lwrist -11.2041
lhand -24.0976 -13.2433
lfingers 7.12502
lthumb 2.38314 16.7232
rfemur -17.1686 17.5041 12.7547
rtibia 21.7622
rfoot -17.6762 -20.6449
rtoes 6.06636
lfemur -15.5526 -26.3778 -13.1318
ltibia 19.7352
lfoot -7.82598 27.0216
ltoes 1.3598
